Coordinates
version=1
nRows=15
nColumns=38
inDegrees=yes

Units are S.I. units (second, meters, Newtons, ...)
Angles are in degrees.

endheader
time	pelvis_tilt	pelvis_list	pelvis_rotation	pelvis_tx	pelvis_ty	pelvis_tz	hip_flexion_r	hip_adduction_r	hip_rotation_r	knee_angle_r	ankle_angle_r	subtalar_angle_r	mtp_angle_r	hip_flexion_l	hip_adduction_l	hip_rotation_l	knee_angle_l	ankle_angle_l	subtalar_angle_l	mtp_angle_l	lumbar_extension	lumbar_bending	lumbar_rotation	arm_flex_r	arm_add_r	arm_rot_r	elbow_flex_r	pro_sup_r	wrist_flex_r	wrist_dev_r	arm_flex_l	arm_add_l	arm_rot_l	elbow_flex_l	pro_sup_l	wrist_flex_l	wrist_dev_l
      1.82000000	      2.67707825	      3.20940271	      7.73524170	      0.59044242	      1.00288806	     -0.27013428	     24.44921916	     -6.17634120	    -20.17755095	    -12.46588834	     -1.57618063	     -0.99895683	      0.00000000	    -20.69366492	      1.41561229	      3.64304510	    -14.12614038	     16.80899741	      8.26212798	      0.00000000	    -11.73927129	     -0.95907937	     -6.87862243	      3.71250510	     -6.38958020	     51.34751840	     21.89361509	     44.88391964	      0.00000000	      0.00000000	      6.04296201	    -10.99734719	     37.44095500	     39.17297282	     44.88391964	      0.00000000	      0.00000000
      1.83000000	      2.68264806	      2.50441781	      7.75286274	      0.60606962	      1.00249843	     -0.26860684	     24.30183531	     -5.32330332	    -20.62307451	    -12.74125207	     -5.75675397	     -3.50010800	      0.00000000	    -20.67747756	      0.31405544	      2.16198817	    -15.52033719	     15.81246183	      9.80651667	      0.00000000	    -11.47600971	     -0.15156144	     -6.69151495	      3.49515354	     -6.45257508	     51.32189832	     21.66172444	     44.88714641	      0.00000000	      0.00000000	      5.65805957	    -10.63515372	     37.65878898	     38.36429180	     44.88714641	      0.00000000	      0.00000000
      1.84000000	      2.58242515	      1.85575608	      7.76181278	      0.62187270	      1.00244621	     -0.26703962	     24.12839329	     -4.44687663	    -18.73643140	    -13.10912333	     -7.85450236	     -5.50296719	      0.00000000	    -20.49807147	     -0.68884104	      1.15874833	    -16.99547880	     14.21606827	     10.96580673	      0.00000000	    -11.10390652	      0.58227164	     -6.47397226	      3.22861926	     -6.48802033	     51.30689912	     21.45574541	     44.89034499	      0.00000000	      0.00000000	      5.27937889	    -10.32045777	     37.93798874	     37.58360375	     44.89034499	      0.00000000	      0.00000000
      1.85000000	      2.35477843	      1.23244352	      7.78280183	      0.63766829	      1.00279583	     -0.26556564	     24.12238018	     -3.50612560	    -16.92955192	    -13.72643506	    -10.43088547	     -7.56517622	      0.00000000	    -20.03427629	     -1.60305832	      0.54655821	    -18.63430824	     12.33116684	     11.42404881	      0.00000000	    -10.57853661	      1.27289396	     -6.29812244	      2.93813336	     -6.53127565	     51.29286929	     21.23575155	     44.89338324	      0.00000000	      0.00000000	      4.83966768	     -9.98126482	     38.24127014	     36.76368198	     44.89338324	      0.00000000	      0.00000000
      1.86000000	      2.16226652	      0.53765013	      7.82778230	      0.65347853	      1.00363587	     -0.26429504	     24.05350679	     -2.31448909	    -14.07701142	    -14.57839879	    -11.84992079	    -11.01174159	      0.00000000	    -19.40130349	     -2.57517786	     -0.07771285	    -20.52658437	     10.12330397	     11.70839051	      0.00000000	    -10.07874876	      2.07338790	     -6.14329422	      2.71631295	     -6.59224512	     51.28334502	     21.04977512	     44.89593761	      0.00000000	      0.00000000	      4.31543889	     -9.61392533	     38.51219079	     35.94912455	     44.89593761	      0.00000000	      0.00000000
      1.87000000	      1.97229876	     -0.14568076	      7.84175902	      0.66930808	      1.00485416	     -0.26329920	     24.30950749	     -1.46679989	    -13.10011198	    -16.06862351	    -11.42288356	    -12.60974672	      0.00000000	    -18.67837547	     -3.44174112	     -0.42991352	    -22.50462265	      7.07750449	     11.46294851	      0.00000000	     -9.58694073	      2.90156326	     -5.96876074	      2.48095662	     -6.72947239	     51.27260900	     20.88178288	     44.89801992	      0.00000000	      0.00000000	      3.75864777	     -9.19778962	     38.74669275	     35.20520485	     44.89801992	      0.00000000	      0.00000000
      1.88000000	      1.89860819	     -0.79071287	      7.71780542	      0.68514072	      1.00652030	     -0.26211628	     24.47559508	     -0.74328263	    -12.84153202	    -17.74871414	    -10.70618879	    -13.70874210	      0.00000000	    -17.82782046	     -4.32065452	     -1.26161680	    -24.82646794	      3.83736455	     11.25063838	      0.00000000	     -9.26057906	      3.68004898	     -5.72175939	      2.32486568	     -6.86988222	     51.24990450	     20.73839569	     44.90011190	      0.00000000	      0.00000000	      3.19822059	     -8.76772143	     38.95841952	     34.42435647	     44.90011190	      0.00000000	      0.00000000
      1.89000000	      2.04928345	     -1.33119088	      7.60788975	      0.70090675	      1.00872542	     -0.26079613	     24.05119653	      0.15511658	    -11.78610950	    -18.93021339	     -9.54098340	    -14.04774273	      0.00000000	    -17.09127841	     -5.15999302	     -2.07442585	    -27.21864236	     -0.01893284	     10.73593628	      0.00000000	     -9.22471634	      4.33880779	     -5.56625680	      2.20425644	     -6.99790103	     51.24010912	     20.66433333	     44.90046407	      0.00000000	      0.00000000	      2.57551856	     -8.52618885	     39.06832778	     34.21473477	     44.90046407	      0.00000000	      0.00000000
      1.90000000	      1.97319533	     -1.88823189	      7.38973238	      0.71606467	      1.01075371	     -0.25915665	     23.67218840	      1.03794802	    -11.20548618	    -19.62840725	     -8.50538708	    -14.43999877	      0.00000000	    -15.88126014	     -6.03954239	     -3.11373554	    -29.77618360	     -4.15981430	     10.31685499	      0.00000000	     -9.01292132	      4.93921544	     -5.18341922	      2.20754162	     -7.10849319	     51.21848658	     20.60632523	     44.90096118	      0.00000000	      0.00000000	      1.92069090	     -8.26991103	     39.15490101	     33.88732160	     44.90096118	      0.00000000	      0.00000000
      1.91000000	      1.85361107	     -2.47455311	      7.15367663	      0.73083067	      1.01280615	     -0.25740078	     23.24457873	      1.88665235	    -10.96226443	    -20.12019222	     -7.66361859	    -14.58439582	      0.00000000	    -14.56560290	     -6.81923720	     -3.43873983	    -32.29590133	     -7.44129265	      9.77763614	      0.00000000	     -8.79607039	      5.54144891	     -4.79522265	      2.22713392	     -7.21120867	     51.19448590	     20.55340448	     44.90164782	      0.00000000	      0.00000000	      1.34268689	     -8.00586817	     39.20326005	     33.43581089	     44.90164782	      0.00000000	      0.00000000
      1.92000000	      1.89551405	     -2.90400055	      6.97655899	      0.74530818	      1.01519620	     -0.25569273	     22.53957023	      2.62430831	    -10.52892093	    -20.46563297	     -6.62327065	    -14.56399690	      0.00000000	    -13.27862673	     -7.28485716	     -2.95671425	    -35.04833678	     -9.79030892	      8.86590172	      0.00000000	     -8.83052854	      5.95892522	     -4.47006639	      2.28884793	     -7.30037888	     51.17732485	     20.52709100	     44.90207386	      0.00000000	      0.00000000	      0.93370501	     -7.79916206	     39.23898515	     33.14559169	     44.90207386	      0.00000000	      0.00000000
      1.93000000	      1.73733413	     -3.10285813	      6.76013817	      0.75923522	      1.01751859	     -0.25408935	     21.97074147	      3.00836258	    -10.57271132	    -20.66284458	     -5.66065778	    -14.06154196	      0.00000000	    -11.63256029	     -7.12996288	     -1.71682475	    -37.94910894	    -11.75704067	      6.16010570	      0.00000000	     -8.72920875	      6.08869473	     -4.09613224	      2.42168651	     -7.36536828	     51.15755619	     20.55685471	     44.90861696	      0.00000000	      0.00000000	      0.85100437	     -7.13902747	     39.41787785	     30.89775809	     44.90861696	      0.00000000	      0.00000000
      1.94000000	      1.87188912	     -3.25829673	      6.62620100	      0.77299948	      1.02015189	     -0.25237156	     20.97149006	      3.46034130	    -10.37992091	    -20.63231456	     -4.74819226	    -13.97073628	      0.00000000	    -10.17602650	     -7.29303884	     -1.35060710	    -40.83179518	    -13.32083477	      5.10547621	      0.00000000	     -8.99679825	      6.12264680	     -3.83062401	      2.58922015	     -7.40027643	     51.14757081	     20.58148527	     44.90918734	      0.00000000	      0.00000000	      0.49510262	     -7.07739536	     39.52742872	     30.79872205	     44.90918734	      0.00000000	      0.00000000
      1.95000000	      1.97169079	     -3.35269318	      6.60948101	      0.78644633	      1.02269351	     -0.25108652	     19.92530822	      3.77718216	    -10.33334917	    -20.43856269	     -3.84003300	    -13.75900316	      0.00000000	     -8.58098115	     -7.38475326	     -0.94025293	    -43.74725042	    -14.06742034	      3.77492195	      0.00000000	     -9.18934393	      6.19788908	     -3.59512115	      2.80672048	     -7.42278390	     51.14308668	     20.63252844	     44.90970908	      0.00000000	      0.00000000	      0.19503500	     -7.02993724	     39.60525940	     30.68072778	     44.90970908	      0.00000000	      0.00000000
      1.96000000	      2.04840829	     -3.46427610	      6.62812299	      0.79964037	      1.02510646	     -0.24976677	     18.85992368	      4.11098661	    -10.27765052	    -20.11036132	     -2.94578819	    -13.44320295	      0.00000000	     -6.87771920	     -7.52564318	     -0.64800460	    -46.69131022	    -13.66897777	      2.40140690	      0.00000000	     -9.37395562	      6.19990823	     -3.44540867	      3.05573356	     -7.46541903	     51.14306455	     20.70242119	     44.91028763	      0.00000000	      0.00000000	     -0.14567534	     -6.95571910	     39.64293128	     30.48185086	     44.91028763	      0.00000000	      0.00000000
